<?xml version="1.0" encoding="UTF-8" standalone="no"?>
<!DOCTYPE svg PUBLIC "-//W3C//DTD SVG 1.1//EN" "http://www.w3.org/Graphics/SVG/1.1/DTD/svg11.dtd">
<!-- Created with Vectornator (http://vectornator.io/) -->
<svg height="100%" stroke-miterlimit="10" style="fill-rule:nonzero;clip-rule:evenodd;stroke-linecap:round;stroke-linejoin:round;" version="1.1" viewBox="0 0 113.682 24" width="100%" xml:space="preserve" xmlns="http://www.w3.org/2000/svg" xmlns:vectornator="http://vectornator.io" xmlns:xlink="http://www.w3.org/1999/xlink">
<defs/>
<g id="Без-названия" vectornator:layerName="Без названия">
<g fill="#343f52" opacity="1" stroke="none" vectornator:layerName="Text 1">
<path d="M7.6831 7.86477L9.6031 7.86477L12.6391 15.8688L10.1191 15.8688L9.8551 15.1488L7.4311 15.1488L7.1671 15.8688L4.6471 15.8688L7.6831 7.86477ZM9.1831 13.3848L8.6431 11.9808L8.1031 13.3848L9.1831 13.3848ZM6.4351 14.9088L6.6631 14.3088L10.6231 14.3088L10.8511 14.9088L11.1871 14.9088L8.8711 8.82477L8.4151 8.82477L6.0991 14.9088L6.4351 14.9088ZM8.6431 9.11277L10.5151 14.0208L6.7711 14.0208L8.6431 9.11277Z"/>
<path d="M15.7951 7.86477L17.7151 7.86477L20.7511 15.8688L18.2311 15.8688L17.9671 15.1488L15.5431 15.1488L15.2791 15.8688L12.7591 15.8688L15.7951 7.86477ZM17.2951 13.3848L16.7551 11.9808L16.2151 13.3848L17.2951 13.3848ZM14.5471 14.9088L14.7751 14.3088L18.7351 14.3088L18.9631 14.9088L19.2991 14.9088L16.9831 8.82477L16.5271 8.82477L14.2111 14.9088L14.5471 14.9088ZM16.7551 9.11277L18.6271 14.0208L14.8831 14.0208L16.7551 9.11277Z"/>
<path d="M24.6631 11.8728C24.6631 11.4888 24.7291 11.1288 24.8611 10.7928C24.9931 10.4568 25.1791 10.1648 25.4191 9.91677C25.6591 9.66877 25.9511 9.47277 26.2951 9.32877C26.6391 9.18477 27.0231 9.11277 27.4471 9.11277C27.6551 9.11277 27.8411 9.12677 28.0051 9.15477C28.1691 9.18277 28.3071 9.21677 28.4191 9.25677C28.5551 9.29677 28.6711 9.34477 28.7671 9.40077L28.9351 9.11277C28.8071 9.05677 28.6711 9.00477 28.5271 8.95677C28.3911 8.91677 28.2351 8.88077 28.0591 8.84877C27.8831 8.81677 27.6791 8.80077 27.4471 8.80077C27.0391 8.80077 26.6491 8.87277 26.2771 9.01677C25.9051 9.16077 25.5771 9.36677 25.2931 9.63477C25.0091 9.90277 24.7811 10.2268 24.6091 10.6068C24.4371 10.9868 24.3511 11.4088 24.3511 11.8728C24.3511 12.3448 24.4331 12.7688 24.5971 13.1448C24.7611 13.5208 24.9871 13.8428 25.2751 14.1108C25.5631 14.3788 25.8991 14.5848 26.2831 14.7288C26.6671 14.8728 27.0751 14.9448 27.5071 14.9448C27.7471 14.9448 27.9631 14.9248 28.1551 14.8848C28.3471 14.8448 28.5111 14.8008 28.6471 14.7528C28.7991 14.6968 28.9351 14.6328 29.0551 14.5608L28.8871 14.2728C28.7831 14.3448 28.6631 14.4048 28.5271 14.4528C28.4071 14.5008 28.2631 14.5428 28.0951 14.5788C27.9271 14.6148 27.7311 14.6328 27.5071 14.6328C27.0671 14.6328 26.6711 14.5608 26.3191 14.4168C25.9671 14.2728 25.6691 14.0768 25.4251 13.8288C25.1811 13.5808 24.9931 13.2888 24.8611 12.9528C24.7291 12.6168 24.6631 12.2568 24.6631 11.8728ZM23.1511 11.8728C23.1511 11.2328 23.2631 10.6548 23.4871 10.1388C23.7111 9.62277 24.0151 9.18077 24.3991 8.81277C24.7831 8.44477 25.2311 8.16277 25.7431 7.96677C26.2551 7.77077 26.7991 7.67277 27.3751 7.67277C27.8311 7.67277 28.2371 7.71677 28.5931 7.80477C28.9491 7.89277 29.2551 7.99277 29.5111 8.10477C29.8071 8.23277 30.0631 8.37277 30.2791 8.52477L29.0191 10.7448C28.8911 10.6488 28.7511 10.5568 28.5991 10.4688C28.4631 10.4048 28.3011 10.3428 28.1131 10.2828C27.9251 10.2228 27.7111 10.1928 27.4711 10.1928C27.2231 10.1928 26.9951 10.2368 26.7871 10.3248C26.5791 10.4128 26.3971 10.5328 26.2411 10.6848C26.0851 10.8368 25.9631 11.0148 25.8751 11.2188C25.7871 11.4228 25.7431 11.6408 25.7431 11.8728C25.7431 12.1048 25.7891 12.3228 25.8811 12.5268C25.9731 12.7308 26.0991 12.9088 26.2591 13.0608C26.4191 13.2128 26.6071 13.3328 26.8231 13.4208C27.0391 13.5088 27.2751 13.5528 27.5311 13.5528C27.7871 13.5528 28.0151 13.5208 28.2151 13.4568C28.4151 13.3928 28.5831 13.3208 28.7191 13.2408C28.8791 13.1528 29.0191 13.0488 29.1391 12.9288L30.3991 15.1488C30.1831 15.3248 29.9271 15.4808 29.6311 15.6168C29.3751 15.7288 29.0671 15.8328 28.7071 15.9288C28.3471 16.0248 27.9351 16.0728 27.4711 16.0728C26.8471 16.0728 26.2711 15.9708 25.7431 15.7668C25.2151 15.5628 24.7591 15.2768 24.3751 14.9088C23.9911 14.5408 23.6911 14.0988 23.4751 13.5828C23.2591 13.0668 23.1511 12.4968 23.1511 11.8728Z"/>
<path d="M30.5191 11.8728C30.5191 11.2968 30.6291 10.7528 30.8491 10.2408C31.0691 9.72877 31.3691 9.28277 31.7491 8.90277C32.1291 8.52277 32.5751 8.22277 33.0871 8.00277C33.5991 7.78277 34.1431 7.67277 34.7191 7.67277C35.2951 7.67277 35.8391 7.78277 36.3511 8.00277C36.8631 8.22277 37.3091 8.52277 37.6891 8.90277C38.0691 9.28277 38.3691 9.72877 38.5891 10.2408C38.8091 10.7528 38.9191 11.2968 38.9191 11.8728C38.9191 12.4488 38.8091 12.9928 38.5891 13.5048C38.3691 14.0168 38.0691 14.4628 37.6891 14.8428C37.3091 15.2228 36.8631 15.5228 36.3511 15.7428C35.8391 15.9628 35.2951 16.0728 34.7191 16.0728C34.1431 16.0728 33.5991 15.9628 33.0871 15.7428C32.5751 15.5228 32.1291 15.2228 31.7491 14.8428C31.3691 14.4628 31.0691 14.0168 30.8491 13.5048C30.6291 12.9928 30.5191 12.4488 30.5191 11.8728ZM31.6471 11.8728C31.6471 12.2968 31.7271 12.6948 31.8871 13.0668C32.0471 13.4388 32.2671 13.7648 32.5471 14.0448C32.8271 14.3248 33.1531 14.5448 33.5251 14.7048C33.8971 14.8648 34.2951 14.9448 34.7191 14.9448C35.1431 14.9448 35.5411 14.8648 35.9131 14.7048C36.2851 14.5448 36.6111 14.3248 36.8911 14.0448C37.1711 13.7648 37.3911 13.4388 37.5511 13.0668C37.7111 12.6948 37.7911 12.2968 37.7911 11.8728C37.7911 11.4488 37.7111 11.0508 37.5511 10.6788C37.3911 10.3068 37.1711 9.98077 36.8911 9.70077C36.6111 9.42077 36.2851 9.20077 35.9131 9.04077C35.5411 8.88077 35.1431 8.80077 34.7191 8.80077C34.2951 8.80077 33.8971 8.88077 33.5251 9.04077C33.1531 9.20077 32.8271 9.42077 32.5471 9.70077C32.2671 9.98077 32.0471 10.3068 31.8871 10.6788C31.7271 11.0508 31.6471 11.4488 31.6471 11.8728ZM33.0391 11.8728C33.0391 12.1048 33.0831 12.3228 33.1711 12.5268C33.2591 12.7308 33.3791 12.9088 33.5311 13.0608C33.6831 13.2128 33.8611 13.3328 34.0651 13.4208C34.2691 13.5088 34.4871 13.5528 34.7191 13.5528C34.9511 13.5528 35.1691 13.5088 35.3731 13.4208C35.5771 13.3328 35.7551 13.2128 35.9071 13.0608C36.0591 12.9088 36.1791 12.7308 36.2671 12.5268C36.3551 12.3228 36.3991 12.1048 36.3991 11.8728C36.3991 11.6408 36.3551 11.4228 36.2671 11.2188C36.1791 11.0148 36.0591 10.8368 35.9071 10.6848C35.7551 10.5328 35.5771 10.4128 35.3731 10.3248C35.1691 10.2368 34.9511 10.1928 34.7191 10.1928C34.4871 10.1928 34.2691 10.2368 34.0651 10.3248C33.8611 10.4128 33.6831 10.5328 33.5311 10.6848C33.3791 10.8368 33.2591 11.0148 33.1711 11.2188C33.0831 11.4228 33.0391 11.6408 33.0391 11.8728ZM34.7191 14.6328C34.3351 14.6328 33.9771 14.5608 33.6451 14.4168C33.3131 14.2728 33.0211 14.0748 32.7691 13.8228C32.5171 13.5708 32.3191 13.2788 32.1751 12.9468C32.0311 12.6148 31.9591 12.2568 31.9591 11.8728C31.9591 11.4888 32.0311 11.1308 32.1751 10.7988C32.3191 10.4668 32.5171 10.1748 32.7691 9.92277C33.0211 9.67077 33.3131 9.47277 33.6451 9.32877C33.9771 9.18477 34.3351 9.11277 34.7191 9.11277C35.1031 9.11277 35.4611 9.18477 35.7931 9.32877C36.1251 9.47277 36.4171 9.67077 36.6691 9.92277C36.9211 10.1748 37.1191 10.4668 37.2631 10.7988C37.4071 11.1308 37.4791 11.4888 37.4791 11.8728C37.4791 12.2568 37.4071 12.6148 37.2631 12.9468C37.1191 13.2788 36.9211 13.5708 36.6691 13.8228C36.4171 14.0748 36.1251 14.2728 35.7931 14.4168C35.4611 14.5608 35.1031 14.6328 34.7191 14.6328Z"/>
<path d="M39.5791 15.8688L39.5791 7.86477L41.7991 7.86477C42.5511 7.86477 43.2211 7.94877 43.8091 8.11677C44.3971 8.28477 44.8931 8.53677 45.2971 8.87277C45.7011 9.20877 46.0091 9.62677 46.2211 10.1268C46.4331 10.6268 46.5391 11.2048 46.5391 11.8608C46.5391 12.5168 46.4331 13.0948 46.2211 13.5948C46.0091 14.0948 45.7011 14.5128 45.2971 14.8488C44.8931 15.1848 44.3971 15.4388 43.8091 15.6108C43.2211 15.7828 42.5511 15.8688 41.7991 15.8688L39.5791 15.8688ZM41.0911 14.6208L41.0911 9.11277L41.7991 9.11277C42.8151 9.11277 43.6051 9.34277 44.1691 9.80277C44.7331 10.2628 45.0151 10.9488 45.0151 11.8608C45.0151 12.7728 44.7331 13.4608 44.1691 13.9248C43.6051 14.3888 42.8151 14.6208 41.7991 14.6208L41.0911 14.6208ZM40.7791 14.9088L41.7991 14.9088C42.9671 14.9088 43.8491 14.6428 44.4451 14.1108C45.0411 13.5788 45.3391 12.8288 45.3391 11.8608C45.3391 10.8928 45.0411 10.1448 44.4451 9.61677C43.8491 9.08877 42.9671 8.82477 41.7991 8.82477L40.7791 8.82477L40.7791 14.9088ZM42.1351 13.5888C42.7351 13.5888 43.1991 13.4468 43.5271 13.1628C43.8551 12.8788 44.0191 12.4448 44.0191 11.8608C44.0191 11.2768 43.8551 10.8448 43.5271 10.5648C43.1991 10.2848 42.7351 10.1448 42.1351 10.1448L42.1351 13.5888Z"/>
<path d="M47.1991 7.86477L49.9111 7.86477L49.9111 15.8688L47.1991 15.8688L47.1991 7.86477ZM48.7111 14.9088L48.7111 8.82477L48.3991 8.82477L48.3991 14.9088L48.7111 14.9088Z"/>
<path d="M50.7511 7.86477L52.8511 7.86477L55.0591 10.9488L55.0591 7.86477L57.5671 7.86477L57.5671 15.8688L55.4551 15.8688L53.2591 12.7968L53.2591 15.8688L50.7511 15.8688L50.7511 7.86477ZM52.1791 14.9088L52.1791 9.36477L56.1391 14.9088L56.4511 14.9088L56.4511 8.82477L56.1391 8.82477L56.1391 14.3688L52.1791 8.82477L51.8671 8.82477L51.8671 14.9088L52.1791 14.9088Z"/>
<path d="M63.5071 10.5888C63.3631 10.4608 63.1831 10.3628 62.9671 10.2948C62.7511 10.2268 62.5391 10.1928 62.3311 10.1928C62.0991 10.1928 61.8871 10.2348 61.6951 10.3188C61.5031 10.4028 61.3371 10.5188 61.1971 10.6668C61.0571 10.8148 60.9471 10.9928 60.8671 11.2008C60.7871 11.4088 60.7471 11.6328 60.7471 11.8728C60.7471 12.1128 60.7911 12.3368 60.8791 12.5448C60.9671 12.7528 61.0871 12.9308 61.2391 13.0788C61.3911 13.2268 61.5691 13.3428 61.7731 13.4268C61.9771 13.5108 62.1951 13.5528 62.4271 13.5528C62.6991 13.5528 62.9471 13.4948 63.1711 13.3788C63.3951 13.2628 63.5871 13.1048 63.7471 12.9048L63.0271 12.9048L63.0271 11.2248L66.1111 11.2248L66.1111 13.8888C65.9271 14.2168 65.7071 14.5148 65.4511 14.7828C65.1951 15.0508 64.9091 15.2808 64.5931 15.4728C64.2771 15.6648 63.9351 15.8128 63.5671 15.9168C63.1991 16.0208 62.8191 16.0728 62.4271 16.0728C61.8511 16.0728 61.3071 15.9648 60.7951 15.7488C60.2831 15.5328 59.8371 15.2368 59.4571 14.8608C59.0771 14.4848 58.7771 14.0408 58.5571 13.5288C58.3371 13.0168 58.2271 12.4648 58.2271 11.8728C58.2271 11.2968 58.3311 10.7528 58.5391 10.2408C58.7471 9.72877 59.0331 9.28277 59.3971 8.90277C59.7611 8.52277 60.1931 8.22277 60.6931 8.00277C61.1931 7.78277 61.7311 7.67277 62.3071 7.67277C62.7551 7.67277 63.1431 7.71677 63.4711 7.80477C63.7991 7.89277 64.0751 7.99277 64.2991 8.10477C64.5631 8.23277 64.7831 8.37277 64.9591 8.52477L63.5071 10.5888ZM63.6271 9.04077C63.5231 8.99277 63.4071 8.95277 63.2791 8.92077C63.1671 8.88877 63.0351 8.86077 62.8831 8.83677C62.7311 8.81277 62.5631 8.80077 62.3791 8.80077C61.9551 8.80077 61.5591 8.87677 61.1911 9.02877C60.8231 9.18077 60.5031 9.39077 60.2311 9.65877C59.9591 9.92677 59.7451 10.2488 59.5891 10.6248C59.4331 11.0008 59.3551 11.4168 59.3551 11.8728C59.3551 12.3288 59.4351 12.7448 59.5951 13.1208C59.7551 13.4968 59.9751 13.8188 60.2551 14.0868C60.5351 14.3548 60.8611 14.5648 61.2331 14.7168C61.6051 14.8688 62.0031 14.9448 62.4271 14.9448C62.9791 14.9448 63.4791 14.8148 63.9271 14.5548C64.3751 14.2948 64.7391 13.9488 65.0191 13.5168L65.0191 11.9448L63.7471 11.9448L63.7471 12.2328L64.7071 12.2328L64.7071 13.4328C64.4591 13.8008 64.1371 14.0928 63.7411 14.3088C63.3451 14.5248 62.9071 14.6328 62.4271 14.6328C62.0431 14.6328 61.6851 14.5668 61.3531 14.4348C61.0211 14.3028 60.7291 14.1148 60.4771 13.8708C60.2251 13.6268 60.0271 13.3348 59.8831 12.9948C59.7391 12.6548 59.6671 12.2808 59.6671 11.8728C59.6671 11.4648 59.7371 11.0908 59.8771 10.7508C60.0171 10.4108 60.2091 10.1188 60.4531 9.87477C60.6971 9.63077 60.9831 9.44277 61.3111 9.31077C61.6391 9.17877 61.9951 9.11277 62.3791 9.11277C62.5231 9.11277 62.6591 9.12477 62.7871 9.14877C62.9151 9.17277 63.0271 9.19677 63.1231 9.22077C63.2351 9.25277 63.3391 9.28477 63.4351 9.31677L63.6271 9.04077Z"/>
<path d="M71.5471 7.86477L73.4671 7.86477L76.5031 15.8688L73.9831 15.8688L73.7191 15.1488L71.2951 15.1488L71.0311 15.8688L68.5111 15.8688L71.5471 7.86477ZM73.0471 13.3848L72.5071 11.9808L71.9671 13.3848L73.0471 13.3848ZM70.2991 14.9088L70.5271 14.3088L74.4871 14.3088L74.7151 14.9088L75.0511 14.9088L72.7351 8.82477L72.2791 8.82477L69.9631 14.9088L70.2991 14.9088ZM72.5071 9.11277L74.3791 14.0208L70.6351 14.0208L72.5071 9.11277Z"/>
<path d="M79.1791 13.0848C79.4911 13.0848 79.7951 13.0528 80.0911 12.9888L81.2311 14.9088L81.6031 14.9088L80.4031 12.8928C80.8351 12.7408 81.1791 12.5068 81.4351 12.1908C81.6911 11.8748 81.8191 11.4648 81.8191 10.9608C81.8191 10.6088 81.7511 10.3008 81.6151 10.0368C81.4791 9.77277 81.2931 9.55077 81.0571 9.37077C80.8211 9.19077 80.5431 9.05477 80.2231 8.96277C79.9031 8.87077 79.5551 8.82477 79.1791 8.82477L77.8831 8.82477L77.8831 14.9088L78.1951 14.9088L78.1951 13.0848L79.1791 13.0848ZM78.1951 12.7968L78.1951 9.11277L79.1791 9.11277C79.9071 9.11277 80.4771 9.27277 80.8891 9.59277C81.3011 9.91277 81.5071 10.3688 81.5071 10.9608C81.5071 11.5528 81.3011 12.0068 80.8891 12.3228C80.4771 12.6388 79.9071 12.7968 79.1791 12.7968L78.1951 12.7968ZM76.6831 7.86477L79.4431 7.86477C79.9551 7.86477 80.4291 7.93277 80.8651 8.06877C81.3011 8.20477 81.6791 8.40477 81.9991 8.66877C82.3191 8.93277 82.5691 9.25877 82.7491 9.64677C82.9291 10.0348 83.0191 10.4808 83.0191 10.9848C83.0191 11.3848 82.9631 11.7248 82.8511 12.0048C82.7391 12.2848 82.6151 12.5168 82.4791 12.7008C82.3191 12.9088 82.1391 13.0848 81.9391 13.2288L83.4391 15.8688L80.4391 15.8688L79.2391 13.8408L79.2391 15.8688L76.6831 15.8688L76.6831 7.86477ZM79.2391 11.8008L79.3711 11.8008C79.6751 11.8008 79.9331 11.7328 80.1451 11.5968C80.3571 11.4608 80.4631 11.2328 80.4631 10.9128C80.4631 10.5928 80.3571 10.3648 80.1451 10.2288C79.9331 10.0928 79.6751 10.0248 79.3711 10.0248L79.2391 10.0248L79.2391 11.8008Z"/>
<path d="M84.7351 9.96477L83.2591 9.96477L83.2591 7.86477L88.8511 7.86477L88.8511 9.96477L87.3751 9.96477L87.3751 15.8688L84.7351 15.8688L84.7351 9.96477ZM86.2111 14.9088L86.2111 9.11277L87.9271 9.11277L87.9271 8.82477L84.1831 8.82477L84.1831 9.11277L85.8991 9.11277L85.8991 14.9088L86.2111 14.9088Z"/>
<path d="M89.2711 7.86477L91.9831 7.86477L91.9831 15.8688L89.2711 15.8688L89.2711 7.86477ZM90.7831 14.9088L90.7831 8.82477L90.4711 8.82477L90.4711 14.9088L90.7831 14.9088Z"/>
<path d="M93.6151 14.8248C93.7271 14.8488 93.8471 14.8688 93.9751 14.8848C94.0871 14.9008 94.2051 14.9148 94.3291 14.9268C94.4531 14.9388 94.5791 14.9448 94.7071 14.9448C94.9311 14.9448 95.1491 14.9188 95.3611 14.8668C95.5731 14.8148 95.7631 14.7288 95.9311 14.6088C96.0991 14.4888 96.2331 14.3348 96.3331 14.1468C96.4331 13.9588 96.4831 13.7288 96.4831 13.4568C96.4831 13.2248 96.4251 13.0048 96.3091 12.7968C96.1931 12.5888 96.0451 12.3888 95.8651 12.1968C95.6851 12.0048 95.4931 11.8208 95.2891 11.6448C95.0851 11.4688 94.8931 11.2908 94.7131 11.1108C94.5331 10.9308 94.3851 10.7508 94.2691 10.5708C94.1531 10.3908 94.0951 10.2048 94.0951 10.0128C94.0951 9.72477 94.1871 9.50277 94.3711 9.34677C94.5551 9.19077 94.8511 9.11277 95.2591 9.11277C95.3231 9.11277 95.3891 9.11477 95.4571 9.11877C95.5251 9.12277 95.5911 9.12877 95.6551 9.13677C95.7191 9.14477 95.7831 9.14877 95.8471 9.14877L95.8471 8.83677C95.7911 8.83677 95.7311 8.83277 95.6671 8.82477C95.6111 8.81677 95.5491 8.81077 95.4811 8.80677C95.4131 8.80277 95.3431 8.80077 95.2711 8.80077C94.8391 8.80077 94.4831 8.89877 94.2031 9.09477C93.9231 9.29077 93.7831 9.59677 93.7831 10.0128C93.7831 10.2368 93.8411 10.4468 93.9571 10.6428C94.0731 10.8388 94.2211 11.0308 94.4011 11.2188C94.5811 11.4068 94.7731 11.5888 94.9771 11.7648C95.1811 11.9408 95.3731 12.1188 95.5531 12.2988C95.7331 12.4788 95.8811 12.6648 95.9971 12.8568C96.1131 13.0488 96.1711 13.2488 96.1711 13.4568C96.1711 13.8408 96.0411 14.1328 95.7811 14.3328C95.5211 14.5328 95.1631 14.6328 94.7071 14.6328C94.4351 14.6328 94.1871 14.6128 93.9631 14.5728C93.8431 14.5568 93.7271 14.5368 93.6151 14.5128L93.6151 14.8248ZM92.6071 13.3848C92.7831 13.4408 92.9671 13.4848 93.1591 13.5168C93.3191 13.5568 93.5011 13.5888 93.7051 13.6128C93.9091 13.6368 94.1151 13.6488 94.3231 13.6488C94.6911 13.6488 94.8751 13.5128 94.8751 13.2408C94.8751 13.1368 94.8191 13.0308 94.7071 12.9228C94.5951 12.8148 94.4531 12.6948 94.2811 12.5628C94.1091 12.4308 93.9251 12.2848 93.7291 12.1248C93.5331 11.9648 93.3491 11.7808 93.1771 11.5728C93.0051 11.3648 92.8631 11.1308 92.7511 10.8708C92.6391 10.6108 92.5831 10.3128 92.5831 9.97677C92.5831 9.60077 92.6511 9.26877 92.7871 8.98077C92.9231 8.69277 93.1111 8.45277 93.3511 8.26077C93.5911 8.06877 93.8731 7.92277 94.1971 7.82277C94.5211 7.72277 94.8671 7.67277 95.2351 7.67277C95.4271 7.67277 95.6191 7.68277 95.8111 7.70277C96.0031 7.72277 96.1751 7.74077 96.3271 7.75677C96.5031 7.78077 96.6751 7.80477 96.8431 7.82877L96.8431 10.0728C96.7791 10.0648 96.7071 10.0568 96.6271 10.0488C96.5631 10.0408 96.4911 10.0328 96.4111 10.0248C96.3311 10.0168 96.2471 10.0128 96.1591 10.0128C96.1111 10.0128 96.0511 10.0148 95.9791 10.0188C95.9071 10.0228 95.8391 10.0328 95.7751 10.0488C95.7111 10.0648 95.6551 10.0928 95.6071 10.1328C95.5591 10.1728 95.5351 10.2288 95.5351 10.3008C95.5351 10.3648 95.5891 10.4448 95.6971 10.5408C95.8051 10.6368 95.9371 10.7488 96.0931 10.8768C96.2491 11.0048 96.4211 11.1528 96.6091 11.3208C96.7971 11.4888 96.9691 11.6808 97.1251 11.8968C97.2811 12.1128 97.4131 12.3568 97.5211 12.6288C97.6291 12.9008 97.6831 13.2048 97.6831 13.5408C97.6831 13.8928 97.6271 14.2228 97.5151 14.5308C97.4031 14.8388 97.2291 15.1068 96.9931 15.3348C96.7571 15.5628 96.4551 15.7428 96.0871 15.8748C95.7191 16.0068 95.2831 16.0728 94.7791 16.0728C94.4751 16.0728 94.1931 16.0588 93.9331 16.0308C93.6731 16.0028 93.4431 15.9688 93.2431 15.9288C93.0111 15.8888 92.7991 15.8408 92.6071 15.7848L92.6071 13.3848Z"/>
<path d="M99.2791 9.96477L97.8031 9.96477L97.8031 7.86477L103.395 7.86477L103.395 9.96477L101.919 9.96477L101.919 15.8688L99.2791 15.8688L99.2791 9.96477ZM100.755 14.9088L100.755 9.11277L102.471 9.11277L102.471 8.82477L98.7271 8.82477L98.7271 9.11277L100.443 9.11277L100.443 14.9088L100.755 14.9088Z"/>
<path d="M104.607 14.8248C104.719 14.8488 104.839 14.8688 104.967 14.8848C105.079 14.9008 105.197 14.9148 105.321 14.9268C105.445 14.9388 105.571 14.9448 105.699 14.9448C105.923 14.9448 106.141 14.9188 106.353 14.8668C106.565 14.8148 106.755 14.7288 106.923 14.6088C107.091 14.4888 107.225 14.3348 107.325 14.1468C107.425 13.9588 107.475 13.7288 107.475 13.4568C107.475 13.2248 107.417 13.0048 107.301 12.7968C107.185 12.5888 107.037 12.3888 106.857 12.1968C106.677 12.0048 106.485 11.8208 106.281 11.6448C106.077 11.4688 105.885 11.2908 105.705 11.1108C105.525 10.9308 105.377 10.7508 105.261 10.5708C105.145 10.3908 105.087 10.2048 105.087 10.0128C105.087 9.72477 105.179 9.50277 105.363 9.34677C105.547 9.19077 105.843 9.11277 106.251 9.11277C106.315 9.11277 106.381 9.11477 106.449 9.11877C106.517 9.12277 106.583 9.12877 106.647 9.13677C106.711 9.14477 106.775 9.14877 106.839 9.14877L106.839 8.83677C106.783 8.83677 106.723 8.83277 106.659 8.82477C106.603 8.81677 106.541 8.81077 106.473 8.80677C106.405 8.80277 106.335 8.80077 106.263 8.80077C105.831 8.80077 105.475 8.89877 105.195 9.09477C104.915 9.29077 104.775 9.59677 104.775 10.0128C104.775 10.2368 104.833 10.4468 104.949 10.6428C105.065 10.8388 105.213 11.0308 105.393 11.2188C105.573 11.4068 105.765 11.5888 105.969 11.7648C106.173 11.9408 106.365 12.1188 106.545 12.2988C106.725 12.4788 106.873 12.6648 106.989 12.8568C107.105 13.0488 107.163 13.2488 107.163 13.4568C107.163 13.8408 107.033 14.1328 106.773 14.3328C106.513 14.5328 106.155 14.6328 105.699 14.6328C105.427 14.6328 105.179 14.6128 104.955 14.5728C104.835 14.5568 104.719 14.5368 104.607 14.5128L104.607 14.8248ZM103.599 13.3848C103.775 13.4408 103.959 13.4848 104.151 13.5168C104.311 13.5568 104.493 13.5888 104.697 13.6128C104.901 13.6368 105.107 13.6488 105.315 13.6488C105.683 13.6488 105.867 13.5128 105.867 13.2408C105.867 13.1368 105.811 13.0308 105.699 12.9228C105.587 12.8148 105.445 12.6948 105.273 12.5628C105.101 12.4308 104.917 12.2848 104.721 12.1248C104.525 11.9648 104.341 11.7808 104.169 11.5728C103.997 11.3648 103.855 11.1308 103.743 10.8708C103.631 10.6108 103.575 10.3128 103.575 9.97677C103.575 9.60077 103.643 9.26877 103.779 8.98077C103.915 8.69277 104.103 8.45277 104.343 8.26077C104.583 8.06877 104.865 7.92277 105.189 7.82277C105.513 7.72277 105.859 7.67277 106.227 7.67277C106.419 7.67277 106.611 7.68277 106.803 7.70277C106.995 7.72277 107.167 7.74077 107.319 7.75677C107.495 7.78077 107.667 7.80477 107.835 7.82877L107.835 10.0728C107.771 10.0648 107.699 10.0568 107.619 10.0488C107.555 10.0408 107.483 10.0328 107.403 10.0248C107.323 10.0168 107.239 10.0128 107.151 10.0128C107.103 10.0128 107.043 10.0148 106.971 10.0188C106.899 10.0228 106.831 10.0328 106.767 10.0488C106.703 10.0648 106.647 10.0928 106.599 10.1328C106.551 10.1728 106.527 10.2288 106.527 10.3008C106.527 10.3648 106.581 10.4448 106.689 10.5408C106.797 10.6368 106.929 10.7488 107.085 10.8768C107.241 11.0048 107.413 11.1528 107.601 11.3208C107.789 11.4888 107.961 11.6808 108.117 11.8968C108.273 12.1128 108.405 12.3568 108.513 12.6288C108.621 12.9008 108.675 13.2048 108.675 13.5408C108.675 13.8928 108.619 14.2228 108.507 14.5308C108.395 14.8388 108.221 15.1068 107.985 15.3348C107.749 15.5628 107.447 15.7428 107.079 15.8748C106.711 16.0068 106.275 16.0728 105.771 16.0728C105.467 16.0728 105.185 16.0588 104.925 16.0308C104.665 16.0028 104.435 15.9688 104.235 15.9288C104.003 15.8888 103.791 15.8408 103.599 15.7848L103.599 13.3848Z"/>
</g>
</g>
</svg>
